# xmcd CD database file
# Copyright (C) 1993-1998 Ti Kan
#
# Track frame offsets:
#  150
#  11775
#  23295
#  35377
#  44060
#  57162
#  72807
#  83330
#  94277
#  105327
#  121817
#  136200
#  151040
#  162942
#  175935
#  186692
#
# Disc length: 2611 seconds
#
# Revision: 1
# Processed by: cddbd v1.4b41PL1 Copyright (c) Steve Scherf et al.
# Submitted via: CDWizzard Release:4.35
#
DISCID=c20a3110
DTITLE=James Carr - The Complete James Carr  Vol 1
DYEAR=1900
DGENRE=
TTITLE0=There Goes My Usta Be
TTITLE1=These Armes Of Mine
TTITLE2=She's Better Than You
TTITLE3=I Want To Know
TTITLE4=Forgetting You
TTITLE5=Adorable One
TTITLE6=She's Got My Mind Messed Up
TTITLE7=Lovable Girl
TTITLE8=Let It Happen
TTITLE9=A Woman Is A Man's Best Friend
TTITLE10=Young Lovers
TTITLE11=To Love Somebody
TTITLE12=Pouring Water On A Drowning Man
TTITLE13=Love Attack
TTITLE14=These Ain't Raindrops
TTITLE15=I'm A Fool For You
EXTD=
EXTT0=
EXTT1=
EXTT2=
EXTT3=
EXTT4=
EXTT5=
EXTT6=
EXTT7=
EXTT8=
EXTT9=
EXTT10=
EXTT11=
EXTT12=
EXTT13=
EXTT14=
EXTT15=
PLAYORDER=
